<mxfile host="app.diagrams.net" modified="2023-09-20T06:30:34.144Z" agent="Mozilla/5.0 (X11; Ubuntu; Linux x86_64; rv:109.0) Gecko/20100101 Firefox/117.0" etag="TPWv4-PTJuge0Lt05cYb" version="21.7.5" type="google">
  <diagram name="PÃ gina-1" id="Sg09ao-G7lpgm6N78keF">
    <mxGraphModel grid="0" page="1" gridSize="10" guides="1" tooltips="1" connect="1" arrows="1" fold="1" pageScale="1" pageWidth="827" pageHeight="1169" math="0" shadow="0">
      <root>
        <mxCell id="0" />
        <mxCell id="1" parent="0" />
        <mxCell id="vHuE66DUNgfogRrw_Shu-63" value="CORREN" style="shape=rhombus;perimeter=rhombusPerimeter;whiteSpace=wrap;html=1;align=center;" vertex="1" parent="1">
          <mxGeometry x="396" y="399" width="120" height="60" as="geometry" />
        </mxCell>
        <mxCell id="vHuE66DUNgfogRrw_Shu-64" value="PERTENECE" style="shape=rhombus;perimeter=rhombusPerimeter;whiteSpace=wrap;html=1;align=center;" vertex="1" parent="1">
          <mxGeometry x="203" y="513" width="120" height="60" as="geometry" />
        </mxCell>
        <mxCell id="vHuE66DUNgfogRrw_Shu-65" value="" style="endArrow=none;html=1;rounded=0;entryX=0.5;entryY=1;entryDx=0;entryDy=0;exitX=0.5;exitY=0;exitDx=0;exitDy=0;" edge="1" parent="1" source="vHuE66DUNgfogRrw_Shu-83" target="vHuE66DUNgfogRrw_Shu-64">
          <mxGeometry width="50" height="50" relative="1" as="geometry">
            <mxPoint x="248" y="659" as="sourcePoint" />
            <mxPoint x="276" y="603" as="targetPoint" />
          </mxGeometry>
        </mxCell>
        <mxCell id="vHuE66DUNgfogRrw_Shu-66" value="" style="endArrow=none;html=1;rounded=0;exitX=0.5;exitY=0;exitDx=0;exitDy=0;entryX=0.5;entryY=1;entryDx=0;entryDy=0;" edge="1" parent="1" source="vHuE66DUNgfogRrw_Shu-64" target="vHuE66DUNgfogRrw_Shu-81">
          <mxGeometry width="50" height="50" relative="1" as="geometry">
            <mxPoint x="258" y="669" as="sourcePoint" />
            <mxPoint x="286" y="495" as="targetPoint" />
          </mxGeometry>
        </mxCell>
        <mxCell id="vHuE66DUNgfogRrw_Shu-67" value="" style="endArrow=none;html=1;rounded=0;entryX=0;entryY=0.5;entryDx=0;entryDy=0;exitX=1;exitY=0.5;exitDx=0;exitDy=0;" edge="1" parent="1" source="vHuE66DUNgfogRrw_Shu-81" target="vHuE66DUNgfogRrw_Shu-63">
          <mxGeometry width="50" height="50" relative="1" as="geometry">
            <mxPoint x="308" y="431" as="sourcePoint" />
            <mxPoint x="261" y="481" as="targetPoint" />
          </mxGeometry>
        </mxCell>
        <mxCell id="vHuE66DUNgfogRrw_Shu-68" value="" style="endArrow=none;html=1;rounded=0;entryX=0;entryY=0.625;entryDx=0;entryDy=0;exitX=1;exitY=0.5;exitDx=0;exitDy=0;entryPerimeter=0;" edge="1" parent="1" source="vHuE66DUNgfogRrw_Shu-63" target="vHuE66DUNgfogRrw_Shu-82">
          <mxGeometry width="50" height="50" relative="1" as="geometry">
            <mxPoint x="321" y="441" as="sourcePoint" />
            <mxPoint x="586" y="429" as="targetPoint" />
          </mxGeometry>
        </mxCell>
        <mxCell id="vHuE66DUNgfogRrw_Shu-71" value="&lt;b&gt;id_pilotos&lt;/b&gt;" style="ellipse;whiteSpace=wrap;html=1;" vertex="1" parent="1">
          <mxGeometry x="94" y="364" width="69" height="44" as="geometry" />
        </mxCell>
        <mxCell id="vHuE66DUNgfogRrw_Shu-72" value="Nombre" style="ellipse;whiteSpace=wrap;html=1;" vertex="1" parent="1">
          <mxGeometry x="219.5" y="322" width="69" height="44" as="geometry" />
        </mxCell>
        <mxCell id="vHuE66DUNgfogRrw_Shu-75" value="&lt;b&gt;id_circuito&lt;/b&gt;" style="ellipse;whiteSpace=wrap;html=1;" vertex="1" parent="1">
          <mxGeometry x="637" y="499" width="69" height="44" as="geometry" />
        </mxCell>
        <mxCell id="icKg8PzEP_foT5spAwko-2" value="" style="endArrow=none;html=1;rounded=0;entryX=0.5;entryY=0;entryDx=0;entryDy=0;exitX=0;exitY=1;exitDx=0;exitDy=0;" edge="1" parent="1" source="vHuE66DUNgfogRrw_Shu-80" target="icKg8PzEP_foT5spAwko-1">
          <mxGeometry width="50" height="50" relative="1" as="geometry">
            <mxPoint x="-24" y="431" as="sourcePoint" />
            <mxPoint x="268" y="621" as="targetPoint" />
          </mxGeometry>
        </mxCell>
        <mxCell id="icKg8PzEP_foT5spAwko-3" value="" style="endArrow=none;html=1;rounded=0;entryX=0.5;entryY=1;entryDx=0;entryDy=0;exitX=0;exitY=0.25;exitDx=0;exitDy=0;" edge="1" parent="1" source="icKg8PzEP_foT5spAwko-28" target="icKg8PzEP_foT5spAwko-1">
          <mxGeometry width="50" height="50" relative="1" as="geometry">
            <mxPoint x="235" y="368" as="sourcePoint" />
            <mxPoint x="244" y="222" as="targetPoint" />
          </mxGeometry>
        </mxCell>
        <mxCell id="icKg8PzEP_foT5spAwko-5" value="Nombre" style="ellipse;whiteSpace=wrap;html=1;" vertex="1" parent="1">
          <mxGeometry x="549" y="499" width="69" height="44" as="geometry" />
        </mxCell>
        <mxCell id="icKg8PzEP_foT5spAwko-6" value="" style="endArrow=none;html=1;rounded=0;entryX=0.5;entryY=0;entryDx=0;entryDy=0;exitX=0.25;exitY=1;exitDx=0;exitDy=0;" edge="1" parent="1" source="vHuE66DUNgfogRrw_Shu-82" target="icKg8PzEP_foT5spAwko-5">
          <mxGeometry width="50" height="50" relative="1" as="geometry">
            <mxPoint x="603.5735931288073" y="457.2842712474617" as="sourcePoint" />
            <mxPoint x="258" y="481" as="targetPoint" />
          </mxGeometry>
        </mxCell>
        <mxCell id="icKg8PzEP_foT5spAwko-1" value="CONTIENE" style="shape=rhombus;perimeter=rhombusPerimeter;whiteSpace=wrap;html=1;align=center;" vertex="1" parent="1">
          <mxGeometry x="273" y="243" width="120" height="60" as="geometry" />
        </mxCell>
        <mxCell id="icKg8PzEP_foT5spAwko-8" value="&lt;div&gt;&lt;b&gt;id_puntuacion&lt;/b&gt;&lt;/div&gt;" style="ellipse;whiteSpace=wrap;html=1;" vertex="1" parent="1">
          <mxGeometry x="343" y="45" width="101" height="47" as="geometry" />
        </mxCell>
        <mxCell id="icKg8PzEP_foT5spAwko-9" value="" style="endArrow=none;html=1;rounded=0;entryX=0.25;entryY=0;entryDx=0;entryDy=0;exitX=0.5;exitY=1;exitDx=0;exitDy=0;" edge="1" parent="1" source="icKg8PzEP_foT5spAwko-8" target="vHuE66DUNgfogRrw_Shu-80">
          <mxGeometry width="50" height="50" relative="1" as="geometry">
            <mxPoint x="-160" y="488" as="sourcePoint" />
            <mxPoint x="-84" y="471" as="targetPoint" />
          </mxGeometry>
        </mxCell>
        <mxCell id="icKg8PzEP_foT5spAwko-10" value="" style="endArrow=none;html=1;rounded=0;entryX=1;entryY=0.5;entryDx=0;entryDy=0;exitX=0;exitY=0;exitDx=0;exitDy=0;" edge="1" parent="1" source="vHuE66DUNgfogRrw_Shu-81" target="vHuE66DUNgfogRrw_Shu-71">
          <mxGeometry width="50" height="50" relative="1" as="geometry">
            <mxPoint x="205.57359312880726" y="402.7157287525381" as="sourcePoint" />
            <mxPoint x="268" y="621" as="targetPoint" />
          </mxGeometry>
        </mxCell>
        <mxCell id="icKg8PzEP_foT5spAwko-11" value="" style="endArrow=none;html=1;rounded=0;entryX=0.5;entryY=0;entryDx=0;entryDy=0;exitX=0.5;exitY=1;exitDx=0;exitDy=0;" edge="1" parent="1" source="vHuE66DUNgfogRrw_Shu-72" target="vHuE66DUNgfogRrw_Shu-81">
          <mxGeometry width="50" height="50" relative="1" as="geometry">
            <mxPoint x="-150" y="498" as="sourcePoint" />
            <mxPoint x="290.42640687119274" y="402.7157287525383" as="targetPoint" />
          </mxGeometry>
        </mxCell>
        <mxCell id="icKg8PzEP_foT5spAwko-12" value="" style="endArrow=none;html=1;rounded=0;entryX=0.75;entryY=1;entryDx=0;entryDy=0;exitX=0.5;exitY=0;exitDx=0;exitDy=0;" edge="1" parent="1" source="vHuE66DUNgfogRrw_Shu-75" target="vHuE66DUNgfogRrw_Shu-82">
          <mxGeometry width="50" height="50" relative="1" as="geometry">
            <mxPoint x="-140" y="508" as="sourcePoint" />
            <mxPoint x="688.4264068711927" y="457.2842712474619" as="targetPoint" />
          </mxGeometry>
        </mxCell>
        <mxCell id="vHuE66DUNgfogRrw_Shu-78" value="Pais" style="ellipse;whiteSpace=wrap;html=1;" vertex="1" parent="1">
          <mxGeometry x="738" y="499" width="69" height="44" as="geometry" />
        </mxCell>
        <mxCell id="vHuE66DUNgfogRrw_Shu-79" value="" style="endArrow=none;html=1;rounded=0;entryX=1;entryY=1;entryDx=0;entryDy=0;exitX=0;exitY=0;exitDx=0;exitDy=0;" edge="1" parent="1" source="vHuE66DUNgfogRrw_Shu-78" target="vHuE66DUNgfogRrw_Shu-82">
          <mxGeometry width="50" height="50" relative="1" as="geometry">
            <mxPoint x="711" y="509" as="sourcePoint" />
            <mxPoint x="706" y="429" as="targetPoint" />
          </mxGeometry>
        </mxCell>
        <mxCell id="icKg8PzEP_foT5spAwko-16" value="Nombre" style="ellipse;whiteSpace=wrap;html=1;" vertex="1" parent="1">
          <mxGeometry x="247" y="729" width="69" height="44" as="geometry" />
        </mxCell>
        <mxCell id="icKg8PzEP_foT5spAwko-17" value="" style="endArrow=none;html=1;rounded=0;entryX=0.5;entryY=0;entryDx=0;entryDy=0;exitX=0.75;exitY=1;exitDx=0;exitDy=0;" edge="1" parent="1" source="vHuE66DUNgfogRrw_Shu-83" target="icKg8PzEP_foT5spAwko-16">
          <mxGeometry width="50" height="50" relative="1" as="geometry">
            <mxPoint x="290.42640687119274" y="727.2842712474617" as="sourcePoint" />
            <mxPoint x="594" y="509" as="targetPoint" />
          </mxGeometry>
        </mxCell>
        <mxCell id="vHuE66DUNgfogRrw_Shu-80" value="PuntuacionCarrera" style="whiteSpace=wrap;html=1;align=center;" vertex="1" parent="1">
          <mxGeometry x="375" y="117" width="119" height="56" as="geometry" />
        </mxCell>
        <mxCell id="vHuE66DUNgfogRrw_Shu-81" value="Piloto" style="whiteSpace=wrap;html=1;align=center;" vertex="1" parent="1">
          <mxGeometry x="203" y="401" width="119" height="56" as="geometry" />
        </mxCell>
        <mxCell id="vHuE66DUNgfogRrw_Shu-82" value="Cirtcuito" style="whiteSpace=wrap;html=1;align=center;" vertex="1" parent="1">
          <mxGeometry x="589" y="392" width="119" height="56" as="geometry" />
        </mxCell>
        <mxCell id="vHuE66DUNgfogRrw_Shu-83" value="Escuderia" style="whiteSpace=wrap;html=1;align=center;" vertex="1" parent="1">
          <mxGeometry x="204" y="630" width="119" height="56" as="geometry" />
        </mxCell>
        <mxCell id="icKg8PzEP_foT5spAwko-20" value="m:n" style="text;html=1;strokeColor=none;fillColor=none;align=center;verticalAlign=middle;whiteSpace=wrap;rounded=0;" vertex="1" parent="1">
          <mxGeometry x="219.5" y="258" width="60" height="30" as="geometry" />
        </mxCell>
        <mxCell id="icKg8PzEP_foT5spAwko-23" value="1:n" style="text;html=1;strokeColor=none;fillColor=none;align=center;verticalAlign=middle;whiteSpace=wrap;rounded=0;" vertex="1" parent="1">
          <mxGeometry x="303" y="155" width="60" height="30" as="geometry" />
        </mxCell>
        <mxCell id="icKg8PzEP_foT5spAwko-25" value="1,1" style="text;html=1;strokeColor=none;fillColor=none;align=center;verticalAlign=middle;whiteSpace=wrap;rounded=0;" vertex="1" parent="1">
          <mxGeometry x="257" y="593" width="60" height="30" as="geometry" />
        </mxCell>
        <mxCell id="icKg8PzEP_foT5spAwko-26" value="1,n" style="text;html=1;strokeColor=none;fillColor=none;align=center;verticalAlign=middle;whiteSpace=wrap;rounded=0;" vertex="1" parent="1">
          <mxGeometry x="260" y="465" width="60" height="30" as="geometry" />
        </mxCell>
        <mxCell id="icKg8PzEP_foT5spAwko-27" value="1:n" style="text;html=1;strokeColor=none;fillColor=none;align=center;verticalAlign=middle;whiteSpace=wrap;rounded=0;" vertex="1" parent="1">
          <mxGeometry x="322" y="532" width="60" height="30" as="geometry" />
        </mxCell>
        <mxCell id="icKg8PzEP_foT5spAwko-28" value="1,n" style="text;html=1;strokeColor=none;fillColor=none;align=center;verticalAlign=middle;whiteSpace=wrap;rounded=0;" vertex="1" parent="1">
          <mxGeometry x="317" y="395" width="60" height="30" as="geometry" />
        </mxCell>
        <mxCell id="icKg8PzEP_foT5spAwko-29" value="1,n" style="text;html=1;strokeColor=none;fillColor=none;align=center;verticalAlign=middle;whiteSpace=wrap;rounded=0;" vertex="1" parent="1">
          <mxGeometry x="535" y="392" width="60" height="30" as="geometry" />
        </mxCell>
        <mxCell id="icKg8PzEP_foT5spAwko-30" value="m:n" style="text;html=1;strokeColor=none;fillColor=none;align=center;verticalAlign=middle;whiteSpace=wrap;rounded=0;" vertex="1" parent="1">
          <mxGeometry x="422" y="371" width="60" height="30" as="geometry" />
        </mxCell>
        <mxCell id="8fHoerC4DD0baxD2UXZX-14" value="" style="endArrow=none;html=1;rounded=0;exitX=1;exitY=1;exitDx=0;exitDy=0;entryX=0.5;entryY=0;entryDx=0;entryDy=0;" edge="1" parent="1" source="vHuE66DUNgfogRrw_Shu-80" target="8fHoerC4DD0baxD2UXZX-16">
          <mxGeometry width="50" height="50" relative="1" as="geometry">
            <mxPoint x="613" y="218" as="sourcePoint" />
            <mxPoint x="595" y="255" as="targetPoint" />
          </mxGeometry>
        </mxCell>
        <mxCell id="8fHoerC4DD0baxD2UXZX-15" value="1:n" style="text;html=1;strokeColor=none;fillColor=none;align=center;verticalAlign=middle;whiteSpace=wrap;rounded=0;" vertex="1" parent="1">
          <mxGeometry x="269" y="359" width="60" height="30" as="geometry" />
        </mxCell>
        <mxCell id="8fHoerC4DD0baxD2UXZX-16" value="TIENE" style="shape=rhombus;perimeter=rhombusPerimeter;whiteSpace=wrap;html=1;align=center;" vertex="1" parent="1">
          <mxGeometry x="532" y="241" width="120" height="60" as="geometry" />
        </mxCell>
        <mxCell id="8fHoerC4DD0baxD2UXZX-17" value="" style="endArrow=none;html=1;rounded=0;entryX=1;entryY=1;entryDx=0;entryDy=0;exitX=0.5;exitY=0;exitDx=0;exitDy=0;" edge="1" parent="1" source="vHuE66DUNgfogRrw_Shu-82" target="8fHoerC4DD0baxD2UXZX-16">
          <mxGeometry width="50" height="50" relative="1" as="geometry">
            <mxPoint x="242" y="454" as="sourcePoint" />
            <mxPoint x="292" y="404" as="targetPoint" />
          </mxGeometry>
        </mxCell>
        <mxCell id="8fHoerC4DD0baxD2UXZX-20" value="1:n" style="text;html=1;strokeColor=none;fillColor=none;align=center;verticalAlign=middle;whiteSpace=wrap;rounded=0;" vertex="1" parent="1">
          <mxGeometry x="492" y="148" width="60" height="30" as="geometry" />
        </mxCell>
        <mxCell id="8fHoerC4DD0baxD2UXZX-21" value="m:n" style="text;html=1;strokeColor=none;fillColor=none;align=center;verticalAlign=middle;whiteSpace=wrap;rounded=0;" vertex="1" parent="1">
          <mxGeometry x="652" y="256" width="60" height="30" as="geometry" />
        </mxCell>
        <mxCell id="8fHoerC4DD0baxD2UXZX-22" value="1:n" style="text;html=1;strokeColor=none;fillColor=none;align=center;verticalAlign=middle;whiteSpace=wrap;rounded=0;" vertex="1" parent="1">
          <mxGeometry x="646" y="362" width="60" height="30" as="geometry" />
        </mxCell>
        <mxCell id="8fHoerC4DD0baxD2UXZX-23" value="&lt;b&gt;id_escuderia&lt;/b&gt;" style="ellipse;whiteSpace=wrap;html=1;" vertex="1" parent="1">
          <mxGeometry x="134" y="717" width="90" height="50" as="geometry" />
        </mxCell>
        <mxCell id="8fHoerC4DD0baxD2UXZX-24" value="" style="endArrow=none;html=1;rounded=0;exitX=0;exitY=1;exitDx=0;exitDy=0;entryX=0.5;entryY=0;entryDx=0;entryDy=0;" edge="1" parent="1" source="vHuE66DUNgfogRrw_Shu-83" target="8fHoerC4DD0baxD2UXZX-23">
          <mxGeometry width="50" height="50" relative="1" as="geometry">
            <mxPoint x="242" y="454" as="sourcePoint" />
            <mxPoint x="292" y="404" as="targetPoint" />
          </mxGeometry>
        </mxCell>
        <mxCell id="8fHoerC4DD0baxD2UXZX-27" value="puntuacion" style="ellipse;whiteSpace=wrap;html=1;" vertex="1" parent="1">
          <mxGeometry x="463" y="50" width="69" height="44" as="geometry" />
        </mxCell>
        <mxCell id="8fHoerC4DD0baxD2UXZX-28" value="" style="endArrow=none;html=1;rounded=0;entryX=0.75;entryY=0;entryDx=0;entryDy=0;exitX=0;exitY=1;exitDx=0;exitDy=0;" edge="1" parent="1" source="8fHoerC4DD0baxD2UXZX-27" target="vHuE66DUNgfogRrw_Shu-80">
          <mxGeometry width="50" height="50" relative="1" as="geometry">
            <mxPoint x="545" y="107" as="sourcePoint" />
            <mxPoint x="504" y="127" as="targetPoint" />
          </mxGeometry>
        </mxCell>
        <mxCell id="XCb7j3BIieOb2v2UaxKG-21" value="Pilotos" style="swimlane;fontStyle=0;childLayout=stackLayout;horizontal=1;startSize=26;fillColor=none;horizontalStack=0;resizeParent=1;resizeParentMax=0;resizeLast=0;collapsible=1;marginBottom=0;whiteSpace=wrap;html=1;" vertex="1" parent="1">
          <mxGeometry x="592.5" y="902" width="169.5" height="130" as="geometry" />
        </mxCell>
        <mxCell id="XCb7j3BIieOb2v2UaxKG-43" value="id_piloto: INT" style="text;strokeColor=none;fillColor=none;align=left;verticalAlign=top;spacingLeft=4;spacingRight=4;overflow=hidden;rotatable=0;points=[[0,0.5],[1,0.5]];portConstraint=eastwest;whiteSpace=wrap;html=1;" vertex="1" parent="XCb7j3BIieOb2v2UaxKG-21">
          <mxGeometry y="26" width="169.5" height="26" as="geometry" />
        </mxCell>
        <mxCell id="XCb7j3BIieOb2v2UaxKG-44" value="Nacionalidad: VARCHAR" style="text;strokeColor=none;fillColor=none;align=left;verticalAlign=top;spacingLeft=4;spacingRight=4;overflow=hidden;rotatable=0;points=[[0,0.5],[1,0.5]];portConstraint=eastwest;whiteSpace=wrap;html=1;" vertex="1" parent="XCb7j3BIieOb2v2UaxKG-21">
          <mxGeometry y="52" width="169.5" height="26" as="geometry" />
        </mxCell>
        <mxCell id="XCb7j3BIieOb2v2UaxKG-22" value="&lt;div&gt;Nombre: VARCHAR&lt;/div&gt;" style="text;strokeColor=none;fillColor=none;align=left;verticalAlign=top;spacingLeft=4;spacingRight=4;overflow=hidden;rotatable=0;points=[[0,0.5],[1,0.5]];portConstraint=eastwest;whiteSpace=wrap;html=1;" vertex="1" parent="XCb7j3BIieOb2v2UaxKG-21">
          <mxGeometry y="78" width="169.5" height="26" as="geometry" />
        </mxCell>
        <mxCell id="XCb7j3BIieOb2v2UaxKG-50" value="id_escuderia: INT" style="text;strokeColor=none;fillColor=none;align=left;verticalAlign=top;spacingLeft=4;spacingRight=4;overflow=hidden;rotatable=0;points=[[0,0.5],[1,0.5]];portConstraint=eastwest;whiteSpace=wrap;html=1;" vertex="1" parent="XCb7j3BIieOb2v2UaxKG-21">
          <mxGeometry y="104" width="169.5" height="26" as="geometry" />
        </mxCell>
        <mxCell id="XCb7j3BIieOb2v2UaxKG-25" value="Circuitos" style="swimlane;fontStyle=0;childLayout=stackLayout;horizontal=1;startSize=26;fillColor=none;horizontalStack=0;resizeParent=1;resizeParentMax=0;resizeLast=0;collapsible=1;marginBottom=0;whiteSpace=wrap;html=1;" vertex="1" parent="1">
          <mxGeometry x="84" y="929" width="140" height="116" as="geometry" />
        </mxCell>
        <mxCell id="XCb7j3BIieOb2v2UaxKG-26" value="id_circuito: INT" style="text;strokeColor=none;fillColor=none;align=left;verticalAlign=top;spacingLeft=4;spacingRight=4;overflow=hidden;rotatable=0;points=[[0,0.5],[1,0.5]];portConstraint=eastwest;whiteSpace=wrap;html=1;" vertex="1" parent="XCb7j3BIieOb2v2UaxKG-25">
          <mxGeometry y="26" width="140" height="30" as="geometry" />
        </mxCell>
        <mxCell id="XCb7j3BIieOb2v2UaxKG-46" value="Nombre: INT" style="text;strokeColor=none;fillColor=none;align=left;verticalAlign=top;spacingLeft=4;spacingRight=4;overflow=hidden;rotatable=0;points=[[0,0.5],[1,0.5]];portConstraint=eastwest;whiteSpace=wrap;html=1;" vertex="1" parent="XCb7j3BIieOb2v2UaxKG-25">
          <mxGeometry y="56" width="140" height="30" as="geometry" />
        </mxCell>
        <mxCell id="XCb7j3BIieOb2v2UaxKG-47" value="Pais: INT" style="text;strokeColor=none;fillColor=none;align=left;verticalAlign=top;spacingLeft=4;spacingRight=4;overflow=hidden;rotatable=0;points=[[0,0.5],[1,0.5]];portConstraint=eastwest;whiteSpace=wrap;html=1;" vertex="1" parent="XCb7j3BIieOb2v2UaxKG-25">
          <mxGeometry y="86" width="140" height="30" as="geometry" />
        </mxCell>
        <mxCell id="XCb7j3BIieOb2v2UaxKG-29" value="Escuderia" style="swimlane;fontStyle=0;childLayout=stackLayout;horizontal=1;startSize=26;fillColor=none;horizontalStack=0;resizeParent=1;resizeParentMax=0;resizeLast=0;collapsible=1;marginBottom=0;whiteSpace=wrap;html=1;" vertex="1" parent="1">
          <mxGeometry x="833" y="980" width="140" height="78" as="geometry" />
        </mxCell>
        <mxCell id="XCb7j3BIieOb2v2UaxKG-30" value="id_escuderia: INT" style="text;strokeColor=none;fillColor=none;align=left;verticalAlign=top;spacingLeft=4;spacingRight=4;overflow=hidden;rotatable=0;points=[[0,0.5],[1,0.5]];portConstraint=eastwest;whiteSpace=wrap;html=1;" vertex="1" parent="XCb7j3BIieOb2v2UaxKG-29">
          <mxGeometry y="26" width="140" height="26" as="geometry" />
        </mxCell>
        <mxCell id="XCb7j3BIieOb2v2UaxKG-31" value="Nombre: VARCHAR" style="text;strokeColor=none;fillColor=none;align=left;verticalAlign=top;spacingLeft=4;spacingRight=4;overflow=hidden;rotatable=0;points=[[0,0.5],[1,0.5]];portConstraint=eastwest;whiteSpace=wrap;html=1;" vertex="1" parent="XCb7j3BIieOb2v2UaxKG-29">
          <mxGeometry y="52" width="140" height="26" as="geometry" />
        </mxCell>
        <mxCell id="XCb7j3BIieOb2v2UaxKG-32" value="PuntuacionCarrera" style="swimlane;fontStyle=0;childLayout=stackLayout;horizontal=1;startSize=26;fillColor=none;horizontalStack=0;resizeParent=1;resizeParentMax=0;resizeLast=0;collapsible=1;marginBottom=0;whiteSpace=wrap;html=1;" vertex="1" parent="1">
          <mxGeometry x="313" y="851" width="140" height="134" as="geometry" />
        </mxCell>
        <mxCell id="XCb7j3BIieOb2v2UaxKG-33" value="id_puntuacion: INT" style="text;strokeColor=none;fillColor=none;align=left;verticalAlign=top;spacingLeft=4;spacingRight=4;overflow=hidden;rotatable=0;points=[[0,0.5],[1,0.5]];portConstraint=eastwest;whiteSpace=wrap;html=1;" vertex="1" parent="XCb7j3BIieOb2v2UaxKG-32">
          <mxGeometry y="26" width="140" height="26" as="geometry" />
        </mxCell>
        <mxCell id="XCb7j3BIieOb2v2UaxKG-45" value="Puntuacion: INT" style="text;strokeColor=none;fillColor=none;align=left;verticalAlign=top;spacingLeft=4;spacingRight=4;overflow=hidden;rotatable=0;points=[[0,0.5],[1,0.5]];portConstraint=eastwest;whiteSpace=wrap;html=1;" vertex="1" parent="XCb7j3BIieOb2v2UaxKG-32">
          <mxGeometry y="52" width="140" height="26" as="geometry" />
        </mxCell>
        <mxCell id="XCb7j3BIieOb2v2UaxKG-49" value="id_piloto: INT" style="text;strokeColor=none;fillColor=none;align=left;verticalAlign=top;spacingLeft=4;spacingRight=4;overflow=hidden;rotatable=0;points=[[0,0.5],[1,0.5]];portConstraint=eastwest;whiteSpace=wrap;html=1;" vertex="1" parent="XCb7j3BIieOb2v2UaxKG-32">
          <mxGeometry y="78" width="140" height="26" as="geometry" />
        </mxCell>
        <mxCell id="XCb7j3BIieOb2v2UaxKG-51" value="id_circuito: INT" style="text;strokeColor=none;fillColor=none;align=left;verticalAlign=top;spacingLeft=4;spacingRight=4;overflow=hidden;rotatable=0;points=[[0,0.5],[1,0.5]];portConstraint=eastwest;whiteSpace=wrap;html=1;" vertex="1" parent="XCb7j3BIieOb2v2UaxKG-32">
          <mxGeometry y="104" width="140" height="30" as="geometry" />
        </mxCell>
        <mxCell id="XCb7j3BIieOb2v2UaxKG-37" value="" style="endArrow=none;html=1;rounded=0;entryX=0;entryY=0.5;entryDx=0;entryDy=0;exitX=1;exitY=0.5;exitDx=0;exitDy=0;" edge="1" parent="1" source="XCb7j3BIieOb2v2UaxKG-50" target="XCb7j3BIieOb2v2UaxKG-30">
          <mxGeometry width="50" height="50" relative="1" as="geometry">
            <mxPoint x="801" y="833" as="sourcePoint" />
            <mxPoint x="332.5" y="792" as="targetPoint" />
            <Array as="points" />
          </mxGeometry>
        </mxCell>
        <mxCell id="XCb7j3BIieOb2v2UaxKG-38" value="" style="endArrow=none;html=1;rounded=0;entryX=0;entryY=0.5;entryDx=0;entryDy=0;exitX=1;exitY=0.5;exitDx=0;exitDy=0;" edge="1" parent="1" source="XCb7j3BIieOb2v2UaxKG-49" target="XCb7j3BIieOb2v2UaxKG-43">
          <mxGeometry width="50" height="50" relative="1" as="geometry">
            <mxPoint x="453.5" y="941" as="sourcePoint" />
            <mxPoint x="332.5" y="792" as="targetPoint" />
          </mxGeometry>
        </mxCell>
        <mxCell id="XCb7j3BIieOb2v2UaxKG-39" value="" style="endArrow=none;html=1;rounded=0;entryX=0;entryY=0.5;entryDx=0;entryDy=0;exitX=1;exitY=0.5;exitDx=0;exitDy=0;" edge="1" parent="1" source="XCb7j3BIieOb2v2UaxKG-26" target="XCb7j3BIieOb2v2UaxKG-51">
          <mxGeometry width="50" height="50" relative="1" as="geometry">
            <mxPoint x="282.5" y="842" as="sourcePoint" />
            <mxPoint x="313.5" y="941" as="targetPoint" />
          </mxGeometry>
        </mxCell>
        <mxCell id="XCb7j3BIieOb2v2UaxKG-40" value="Nacionalidad" style="ellipse;whiteSpace=wrap;html=1;" vertex="1" parent="1">
          <mxGeometry x="135" y="303" width="69" height="44" as="geometry" />
        </mxCell>
        <mxCell id="XCb7j3BIieOb2v2UaxKG-41" value="" style="endArrow=none;html=1;rounded=0;entryX=0;entryY=0;entryDx=0;entryDy=0;exitX=0.5;exitY=1;exitDx=0;exitDy=0;" edge="1" parent="1" source="XCb7j3BIieOb2v2UaxKG-40" target="vHuE66DUNgfogRrw_Shu-81">
          <mxGeometry width="50" height="50" relative="1" as="geometry">
            <mxPoint x="274" y="640" as="sourcePoint" />
            <mxPoint x="273" y="583" as="targetPoint" />
          </mxGeometry>
        </mxCell>
      </root>
    </mxGraphModel>
  </diagram>
</mxfile>
